<svg xmlns="http://www.w3.org/2000/svg" viewBox="0 0 500 500" role="img" aria-label="Kumea logo">
  <rect width="500" height="500" fill="#000000"/>
  <path d="M 467 467.5 L 286 467.5 L 274.5 456 L 274.5 455 L 201.5 382 L 201.5 381 L 229 353.5 L 236 358.5 L 304 426.5 L 397.5 426 L 250 278.5 L 61 467.5 L 31.5 467 L 32 31.5 L 231.5 32 L 192 71.5 L 72.5 72 L 72.5 98 L 71.5 99 L 72.5 100 L 73 244.5 L 286 31.5 L 467.5 32 Z M 73.5 397 L 398.5 72 L 398 71.5 L 305 71.5 L 72.5 303 L 72.5 353 L 71.5 354 L 72.5 355 L 72.5 397 Z M 427.5 397 L 427 101.5 L 278.5 250 L 427 397.5 Z" fill="#FFFFFF" fill-rule="evenodd"/>
</svg>

